# xmcd
#
# Track frame offsets:
#	150
#	17003
#	36444
#	63722
#	85454
#	107350
#	126903
#	147248
#	176022
#	192123
#
# Disc length: 2845 seconds
#
# Revision: 1
# Processed by: cddbd v1.5.1PL0 Copyright (c) Steve Scherf et al.
# Submitted via: audiograbber 1.83.01
#
DISCID=8b0b1b0a
DTITLE=Tuan Vu - Xa May Phuong Troi
DYEAR=1900
DGENRE=VN Vocal
TTITLE0=Hai Mau Ao
TTITLE1=Xa May Phuong Troi
TTITLE2=Doi Thong Hai Mo
TTITLE3=Noi Lai Tinh Xua
TTITLE4=Vung La Me Bay
TTITLE5=Ngai Ngung
TTITLE6=Duong Ve Khuya
TTITLE7=Se Co Mot Ngay
TTITLE8=Huong Ca Vo Tan
TTITLE9=Mot Coi Di Ve
EXTD=Thanh Trang Music 15131 Moran St, Ste 405 Westminster CA 92683
EXTT0=
EXTT1=
EXTT2=
EXTT3=
EXTT4=
EXTT5=
EXTT6=
EXTT7=
EXTT8=
EXTT9=
PLAYORDER=
